<svg id="typoraIcon" data-name="typoraIcon" xmlns="http://www.w3.org/2000/svg" viewBox="0 0 204.7245 204.7245">
  <rect x=".5" y=".5" width="203.7245" height="203.7245" rx="41.2175" ry="41.2175" style="fill: #fff; stroke: #c5c5c5; stroke-miterlimit: 10;"/>
  <g>
    <rect x="83.6624" y="156.0168" width="37.0198" height="9.6618" rx="4.8309" ry="4.8309" style="fill: #dcdcdc;"/>
    <rect x="93.4508" y="154.5295" width="17.4431" height="6.9565" rx="3.4782" ry="3.4782" style="fill: #bebebe;"/>
  </g>
  <g id="_x23_efefefff">
    <path d="M32.6115,87.8611c5.19-.97,10.56-.16,15.83-.42,10.99.23,22.01-.31,32.98.27,5.15.31,5.06,8.72.04,8.96-15.02.12-30.04-.02-45.06.08-2.56.03-5.93-.45-6.75-3.35-1.25-2.4.65-4.88,2.96-5.54Z" style="fill: #efefef;"/>
    <path d="M122.7115,87.9011c14.54-.67,29.13-.02,43.69-.29,2.53.09,5.52-.47,7.56,1.43,1.56,1.64,1.93,4.71.16,6.34-1.22,1.29-3.14,1.04-4.73,1.17-14.65.04-29.3-.06-43.94-.02-2.1.09-4.41-.52-5.66-2.34-1.07-2.38.4-5.59,2.92-6.29Z" style="fill: #efefef;"/>
  </g>
  <g>
    <rect x="29.3738" y="149.3656" width="42.6268" height="8.9973" rx="4.4986" ry="4.4986" style="fill: #ececec;"/>
    <rect x="132.5523" y="149.3656" width="42.6268" height="8.9973" rx="4.4986" ry="4.4986" style="fill: #ececec;"/>
  </g>
  <g>
    <rect x="29.3738" y="128.7644" width="55.7464" height="8.9973" rx="4.4986" ry="4.4986" style="fill: #ececec;"/>
    <rect x="119.4945" y="128.7644" width="55.6846" height="8.9973" rx="4.4986" ry="4.4986" style="fill: #ececec;"/>
  </g>
  <g>
    <rect x="29.3738" y="108.1633" width="55.7464" height="8.9973" rx="4.4986" ry="4.4986" style="fill: #ececec;"/>
    <rect x="119.4945" y="108.1633" width="55.6846" height="8.9973" rx="4.4986" ry="4.4986" style="fill: #ececec;"/>
  </g>
  <g>
    <rect x="29.3738" y="66.9609" width="17.7361" height="8.9973" rx="4.4986" ry="4.4986" style="fill: #ececec;"/>
    <rect x="157.3637" y="66.9609" width="17.8154" height="8.9973" rx="4.4986" ry="4.4986" style="fill: #ececec;"/>
  </g>
  <g>
    <rect x="29.3738" y="46.3597" width="17.7361" height="8.9973" rx="4.4986" ry="4.4986" style="fill: #ececec;"/>
    <rect x="157.3637" y="46.3597" width="17.8154" height="8.9973" rx="4.4986" ry="4.4986" style="fill: #ececec;"/>
  </g>
  <g>
    <path d="M59.8763,74.8026s4.2501-6.2591,8.6795-8.8753,10.6433-4.574,15.9634-4.7442,11.4915,1.1066,11.4915,1.1066v-9.0655h-36.1343v21.5785Z" style="fill: #e0e0e0;"/>
    <path d="M144.4684,74.8026s-4.2501-6.2591-8.6795-8.8753-10.6433-4.574-15.9634-4.7442-11.4915,1.1066-11.4915,1.1066v-9.0655h36.1343v21.5785Z" style="fill: #e0e0e0;"/>
  </g>
  <g>
    <path d="M56.0623,75.6573h4.7668s1.7649-8.7777,3.2811-11.2079,3.2446-5.0719,7.9936-6.9939,21.6153-2.4483,21.6153-2.4483c0,0,.0785,80.2111.0785,83.914s-.3543,8.2446-3.7894,9.7609-10.0191,1.9351-10.0191,1.9351c0,0-.6018,2.7104-.2611,4.9049s.8248,2.8084,3.6954,2.8084,19.0958.0074,19.0958.0074V46.2846s-44.0719.0222-45.7242.0002-2.1159,2.0226-2.1159,2.0226c0,0-1.0462,23.7377-.8312,25.362s2.2144,1.988,2.2144,1.988Z" style="fill: #2b2b2b;"/>
    <path d="M148.2824,75.6573h-4.7668s-1.7649-8.7777-3.2811-11.2079-3.2446-5.0719-7.9936-6.9939-21.6153-2.4483-21.6153-2.4483c0,0-.0785,80.2111-.0785,83.914s.3543,8.2446,3.7894,9.7609,10.0191,1.9351,10.0191,1.9351c0,0,.6018,2.7104.2611,4.9049s-.8248,2.8084-3.6954,2.8084-19.0958.0074-19.0958.0074V46.2846s44.0719.0222,45.7242.0002,2.1159,2.0226,2.1159,2.0226c0,0,1.0462,23.7377.8312,25.362s-2.2144,1.988-2.2144,1.988Z" style="fill: #2b2b2b;"/>
  </g>
</svg>