<svg xmlns="http://www.w3.org/2000/svg" width="234.98931884765625" height="212.2723846435547" viewBox="-116.6628189086914 -44.64276123046875 234.98931884765625 212.2723846435547"><title>Neo4j Graph Visualization</title><desc>Created using Neo4j (http://www.neo4j.com/)</desc><g class="layer relationships"><g class="relationship" transform="translate(-0.18732826628620322 138.62963062073223) rotate(269.9015399208993)"><path class="b-outline" fill="#A5ABB6" stroke="none" d="M 25 0.5 L 47.59138723928402 0.5 L 47.59138723928402 -0.5 L 25 -0.5 Z M 99.68123098928402 0.5 L 122.27261822856804 0.5 L 122.27261822856804 3.5 L 129.27261822856804 0 L 122.27261822856804 -3.5 L 122.27261822856804 -0.5 L 99.68123098928402 -0.5 Z"/><text text-anchor="middle" pointer-events="none" font-size="8px" fill="#000000" x="73.63630911428402" y="3" transform="rotate(180 73.63630911428402 0)" font-family="Helvetica Neue, Helvetica, Arial, sans-serif">TASTED_BY</text></g><g class="relationship" transform="translate(-87.66281770563592 32.78174556338256) rotate(360.42658710289675)"><path class="b-outline" fill="#A5ABB6" stroke="none" d="M 25 0.5 L 51.17094126281296 0.5 L 51.17094126281296 -0.5 L 25 -0.5 Z M 118.82328501281296 0.5 L 144.99422627562592 0.5 L 144.99422627562592 3.5 L 151.99422627562592 0 L 144.99422627562592 -3.5 L 144.99422627562592 -0.5 L 118.82328501281296 -0.5 Z"/><text text-anchor="middle" pointer-events="none" font-size="8px" fill="#000000" x="84.99711313781296" y="3" font-family="Helvetica Neue, Helvetica, Arial, sans-serif">IS_LOCATED_IN</text></g><g class="relationship" transform="translate(-0.18732826628620322 138.62963062073223) rotate(310.5749287994483)"><path class="b-outline" fill="#A5ABB6" stroke="none" d="M 25 0.5 L 26.528761210464737 0.5 L 26.528761210464737 -0.5 L 25 -0.5 Z M 104.09126121046474 0.5 L 105.62002242092947 0.5 L 105.62002242092947 3.5 L 112.62002242092947 0 L 105.62002242092947 -3.5 L 105.62002242092947 -0.5 L 104.09126121046474 -0.5 Z"/><text text-anchor="middle" pointer-events="none" font-size="8px" fill="#000000" x="65.31001121046474" y="3" font-family="Helvetica Neue, Helvetica, Arial, sans-serif">IS_FROM_COUN…</text></g><g class="relationship" transform="translate(-0.18732826628620322 138.62963062073223) rotate(230.4287730979126)"><path class="b-outline" fill="#A5ABB6" stroke="none" d="M 25 0.5 L 25.70692310251829 0.5 L 25.70692310251829 -0.5 L 25 -0.5 Z M 104.60926685251829 0.5 L 105.31618995503658 0.5 L 105.31618995503658 3.5 L 112.31618995503658 0 L 105.31618995503658 -3.5 L 105.31618995503658 -0.5 L 104.60926685251829 -0.5 Z"/><text text-anchor="middle" pointer-events="none" font-size="8px" fill="#000000" x="65.15809497751829" y="3" transform="rotate(180 65.15809497751829 0)" font-family="Helvetica Neue, Helvetica, Arial, sans-serif">IS_FROM_PROVI…</text></g></g><g class="layer nodes"><g class="node" aria-label="graph-node-2" transform="translate(-0.18732826628620322,138.62963062073223)"><circle class="b-outline" cx="0" cy="0" r="25" fill="#C990C0" stroke="#b261a5" stroke-width="2px"/><text class="caption" text-anchor="middle" pointer-events="none" x="0" y="5" font-size="10px" fill="#FFFFFF" font-family="Helvetica Neue, Helvetica, Arial, sans-serif"> Wine</text></g><g class="node" aria-label="graph-node-1" transform="translate(89.32650291190777,34.099517261284845)"><circle class="b-outline" cx="0" cy="0" r="25" fill="#569480" stroke="#447666" stroke-width="2px"/><text class="caption" text-anchor="middle" pointer-events="none" x="0" y="5" font-size="10px" fill="#FFFFFF" font-family="Helvetica Neue, Helvetica, Arial, sans-serif"> Country</text></g><g class="node" aria-label="graph-node-4" transform="translate(-0.4524383118581703,-15.642759818261231)"><circle class="b-outline" cx="0" cy="0" r="25" fill="#4C8EDA" stroke="#2870c2" stroke-width="2px"/><text class="caption" text-anchor="middle" pointer-events="none" x="0" y="5" font-size="10px" fill="#FFFFFF" font-family="Helvetica Neue, Helvetica, Arial, sans-serif"> Person</text></g><g class="node" aria-label="graph-node-3" transform="translate(-87.66281770563592,32.78174556338256)"><circle class="b-outline" cx="0" cy="0" r="25" fill="#604A0E" stroke="#423204" stroke-width="2px"/><text class="caption" text-anchor="middle" pointer-events="none" x="0" y="5" font-size="10px" fill="#FFFFFF" font-family="Helvetica Neue, Helvetica, Arial, sans-serif"> Province</text></g></g></svg>